<?xml version="1.0" encoding="utf-8"?>
<!-- Generator: Adobe Illustrator 24.2.3, SVG Export Plug-In . SVG Version: 6.00 Build 0)  -->
<svg version="1.1" id="e9a400c3-14c4-48e9-ac4d-1e6d0c39fdb5"
	 xmlns="http://www.w3.org/2000/svg" xmlns:xlink="http://www.w3.org/1999/xlink" x="0px" y="0px" viewBox="0 0 24.6 23.7"
	 style="enable-background:new 0 0 24.6 23.7;" xml:space="preserve">
<style type="text/css">
	.st0{fill:#4285F4;}
</style>
<path class="st0" d="M6.8,8.6c0.4-0.4,0.9-0.8,1.5-1.1c2.9-1.6,6.6-0.7,8.4,2.1l-2.2,2.2c-0.8-1.7-2.7-2.5-4.4-1.7
	c-0.4,0.2-0.7,0.4-1,0.7l-4.3,4.3c-1.3,1.3-1.3,3.4,0,4.7c1.3,1.3,3.4,1.3,4.7,0l1.3-1.3c1.2,0.5,2.5,0.7,3.8,0.6l-3,2.9
	C9,24.4,5,24.3,2.5,21.7c-2.3-2.5-2.3-6.4,0-8.8L6.8,8.6z M13.7,1.8l-2.9,2.9c1.3-0.1,2.6,0.1,3.8,0.6L15.9,4c1.3-1.3,3.4-1.3,4.7,0
	s1.3,3.4,0,4.7L16.3,13c-1.3,1.3-3.4,1.3-4.7,0c-0.3-0.3-0.5-0.6-0.7-1l-2.2,2.2c0.9,1.4,2.3,2.3,3.8,2.7c1.6,0.4,3.2,0.1,4.6-0.6
	c0.5-0.3,1-0.7,1.5-1.1l4.3-4.3c2.4-2.6,2.3-6.6-0.2-9.1C20.1-0.6,16.2-0.6,13.7,1.8L13.7,1.8z"/>
</svg>
