<svg id="e9a400c3-14c4-48e9-ac4d-1e6d0c39fdb5" xmlns="http://www.w3.org/2000/svg" viewBox="0 0 47.21 49.04"><defs><style>.cls-1{fill:#4285f4;fill-rule:evenodd;}</style></defs><path id="telegram-1" class="cls-1" d="M30,33.3a1.19,1.19,0,0,0,1.11.14,1.14,1.14,0,0,0,.72-.84c.87-4.08,3-14.42,3.77-18.13a.79.79,0,0,0-.26-.76.8.8,0,0,0-.8-.14c-4.19,1.55-17.1,6.4-22.38,8.35a.81.81,0,0,0-.54.8.82.82,0,0,0,.59.76c2.37.71,5.47,1.69,5.47,1.69s1.46,4.39,2.21,6.62a.91.91,0,0,0,.61.58.9.9,0,0,0,.81-.21l3.09-2.92S28,31.85,30,33.3ZM19,24.62l1.68,5.54L21,26.65l10.19-9.18a.28.28,0,0,0,0-.38.29.29,0,0,0-.38-.07Z"/></svg>