<?xml version="1.0" encoding="utf-8"?>
<!-- Generator: Adobe Illustrator 25.0.0, SVG Export Plug-In . SVG Version: 6.00 Build 0)  -->
<svg version="1.1" id="e9a400c3-14c4-48e9-ac4d-1e6d0c39fdb5"
	 xmlns="http://www.w3.org/2000/svg" xmlns:xlink="http://www.w3.org/1999/xlink" x="0px" y="0px" viewBox="0 0 47.2 49"
	 style="enable-background:new 0 0 47.2 49;" xml:space="preserve">
<style type="text/css">
	.st0{fill:#4285F4;}
</style>
<path class="st0" d="M23.6,11.2c-7.3,0-13.3,6-13.3,13.3c0,2.4,0.7,4.8,1.9,6.9l-1.9,5.7c-0.1,0.2,0,0.4,0.1,0.5
	c0.1,0.1,0.2,0.2,0.4,0.2c0.1,0,0.1,0,0.2,0l5.7-1.9c2.1,1.3,4.5,1.9,6.9,1.9c7.3,0,13.3-6,13.3-13.3C36.9,17.2,31,11.2,23.6,11.2z
	 M32.1,29.9c0,0.5-0.2,0.9-0.5,1.3l-1.4,1.4C29.9,32.9,29.4,33,29,33h-0.1c-7.4-0.3-13.5-6.4-13.8-13.8c0-0.5,0.2-1,0.5-1.3l1.4-1.4
	c0.3-0.3,0.8-0.5,1.3-0.5h0.5c0.7,0,1.4,0.5,1.7,1.1l1.2,3.2c0.2,0.6,0.1,1.3-0.4,1.8l-0.5,0.5c-0.2,0.2-0.3,0.6-0.1,0.9
	c0.6,0.9,1.9,2.6,3.9,3.9c0.3,0.2,0.6,0.1,0.9-0.1l0.5-0.5c0.5-0.5,1.2-0.6,1.8-0.4l3.2,1.2c0.7,0.3,1.1,0.9,1.1,1.7V29.9z"/>
</svg>
